<mxfile host="65bd71144e">
    <diagram id="oxPeWYvmzQ2fhBfpnkjk" name="Page-1">
        <mxGraphModel dx="4449" dy="941" grid="1" gridSize="10" guides="1" tooltips="1" connect="1" arrows="1" fold="1" page="1" pageScale="1" pageWidth="850" pageHeight="1100" background="#8A8A8A" math="0" shadow="0">
            <root>
                <mxCell id="0"/>
                <mxCell id="1" parent="0"/>
                <mxCell id="146" value="Szene 4" style="shape=umlFrame;whiteSpace=wrap;html=1;width=120;height=30;boundedLbl=1;verticalAlign=middle;align=left;spacingLeft=5;strokeColor=#F0F0F0;rounded=1;sketch=1;" parent="1" vertex="1">
                    <mxGeometry x="590" y="460" width="1130" height="1760" as="geometry"/>
                </mxCell>
                <mxCell id="249" value="Szene 5" style="shape=umlFrame;whiteSpace=wrap;html=1;width=120;height=30;boundedLbl=1;verticalAlign=middle;align=left;spacingLeft=5;strokeColor=#F0F0F0;rounded=1;sketch=1;" parent="1" vertex="1">
                    <mxGeometry x="-240" y="1370" width="760" height="1470" as="geometry"/>
                </mxCell>
                <mxCell id="148" value="Szene 3&amp;nbsp;" style="shape=umlFrame;whiteSpace=wrap;html=1;width=120;height=30;boundedLbl=1;verticalAlign=middle;align=left;spacingLeft=5;strokeColor=#F0F0F0;rounded=1;sketch=1;" parent="1" vertex="1">
                    <mxGeometry x="-2010" y="560" width="1730" height="1700" as="geometry"/>
                </mxCell>
                <mxCell id="20" value="Szene 2" style="shape=umlFrame;whiteSpace=wrap;html=1;width=120;height=30;boundedLbl=1;verticalAlign=middle;align=left;spacingLeft=5;strokeColor=#F0F0F0;rounded=1;sketch=1;" parent="1" vertex="1">
                    <mxGeometry x="-115" y="400" width="580" height="270" as="geometry"/>
                </mxCell>
                <mxCell id="18" value="Szene 1" style="shape=umlFrame;whiteSpace=wrap;html=1;width=120;height=30;boundedLbl=1;verticalAlign=middle;align=left;spacingLeft=5;strokeColor=#F0F0F0;rounded=1;sketch=1;" parent="1" vertex="1">
                    <mxGeometry x="-37.5" y="110" width="425" height="250" as="geometry"/>
                </mxCell>
                <mxCell id="13" style="edgeStyle=orthogonalEdgeStyle;orthogonalLoop=1;jettySize=auto;html=1;entryX=0.5;entryY=0;entryDx=0;entryDy=0;sketch=1;" parent="1" source="2" target="12" edge="1">
                    <mxGeometry relative="1" as="geometry"/>
                </mxCell>
                <mxCell id="2" value="" style="ellipse;fillColor=#000000;strokeColor=none;rounded=1;sketch=1;" parent="1" vertex="1">
                    <mxGeometry x="160" y="40" width="30" height="30" as="geometry"/>
                </mxCell>
                <mxCell id="9" style="edgeStyle=orthogonalEdgeStyle;orthogonalLoop=1;jettySize=auto;html=1;sketch=1;" parent="1" source="4" target="8" edge="1">
                    <mxGeometry relative="1" as="geometry"/>
                </mxCell>
                <mxCell id="4" value="Name eingeben" style="html=1;align=center;verticalAlign=middle;absoluteArcSize=1;arcSize=10;dashed=0;fillColor=#00994D;rounded=1;sketch=1;" parent="1" vertex="1">
                    <mxGeometry x="105" y="190" width="140" height="60" as="geometry"/>
                </mxCell>
                <mxCell id="11" style="edgeStyle=orthogonalEdgeStyle;orthogonalLoop=1;jettySize=auto;html=1;entryX=0.5;entryY=0;entryDx=0;entryDy=0;sketch=1;" parent="1" source="8" edge="1">
                    <mxGeometry relative="1" as="geometry">
                        <mxPoint x="175" y="310" as="targetPoint"/>
                    </mxGeometry>
                </mxCell>
                <mxCell id="16" style="edgeStyle=orthogonalEdgeStyle;orthogonalLoop=1;jettySize=auto;html=1;entryX=0.5;entryY=0;entryDx=0;entryDy=0;sketch=1;" parent="1" source="8" target="15" edge="1">
                    <mxGeometry relative="1" as="geometry"/>
                </mxCell>
                <mxCell id="8" value="Kennen lernen" style="ellipse;whiteSpace=wrap;html=1;rounded=1;sketch=1;" parent="1" vertex="1">
                    <mxGeometry x="105" y="290" width="140" height="70" as="geometry"/>
                </mxCell>
                <mxCell id="14" style="edgeStyle=orthogonalEdgeStyle;orthogonalLoop=1;jettySize=auto;html=1;sketch=1;" parent="1" source="12" target="4" edge="1">
                    <mxGeometry relative="1" as="geometry"/>
                </mxCell>
                <mxCell id="12" value="Felsenstrand" style="html=1;align=center;verticalAlign=top;absoluteArcSize=1;arcSize=10;dashed=0;fillColor=#FFB366;rounded=1;sketch=1;" parent="1" vertex="1">
                    <mxGeometry x="105" y="110" width="140" height="40" as="geometry"/>
                </mxCell>
                <mxCell id="23" style="edgeStyle=orthogonalEdgeStyle;orthogonalLoop=1;jettySize=auto;html=1;sketch=1;" parent="1" source="15" target="22" edge="1">
                    <mxGeometry relative="1" as="geometry"/>
                </mxCell>
                <mxCell id="15" value="Schildkrötenstrand" style="html=1;align=center;verticalAlign=top;absoluteArcSize=1;arcSize=10;dashed=0;fillColor=#FFB366;rounded=1;sketch=1;" parent="1" vertex="1">
                    <mxGeometry x="105" y="400" width="140" height="40" as="geometry"/>
                </mxCell>
                <mxCell id="25" style="edgeStyle=orthogonalEdgeStyle;orthogonalLoop=1;jettySize=auto;html=1;entryX=0.5;entryY=0;entryDx=0;entryDy=0;sketch=1;" parent="1" source="22" target="24" edge="1">
                    <mxGeometry relative="1" as="geometry"/>
                </mxCell>
                <mxCell id="22" value="Schildkröten finden" style="ellipse;whiteSpace=wrap;html=1;rounded=1;sketch=1;" parent="1" vertex="1">
                    <mxGeometry x="105" y="480" width="140" height="70" as="geometry"/>
                </mxCell>
                <mxCell id="30" style="edgeStyle=orthogonalEdgeStyle;orthogonalLoop=1;jettySize=auto;html=1;sketch=1;" parent="1" source="24" target="28" edge="1">
                    <mxGeometry relative="1" as="geometry"/>
                </mxCell>
                <mxCell id="32" style="edgeStyle=orthogonalEdgeStyle;orthogonalLoop=1;jettySize=auto;html=1;sketch=1;" parent="1" source="24" target="31" edge="1">
                    <mxGeometry relative="1" as="geometry"/>
                </mxCell>
                <mxCell id="24" value="" style="rhombus;strokeColor=#F0F0F0;rounded=1;sketch=1;" parent="1" vertex="1">
                    <mxGeometry x="160" y="590" width="30" height="30" as="geometry"/>
                </mxCell>
                <mxCell id="34" style="edgeStyle=orthogonalEdgeStyle;orthogonalLoop=1;jettySize=auto;html=1;entryX=1;entryY=0.5;entryDx=0;entryDy=0;entryPerimeter=0;sketch=1;" parent="1" source="28" target="149" edge="1">
                    <mxGeometry relative="1" as="geometry">
                        <mxPoint x="-355" y="605" as="targetPoint"/>
                    </mxGeometry>
                </mxCell>
                <mxCell id="28" value="Zusehen" style="html=1;align=center;verticalAlign=middle;absoluteArcSize=1;arcSize=10;dashed=0;fillColor=#00994D;rounded=1;sketch=1;" parent="1" vertex="1">
                    <mxGeometry x="-90" y="575" width="140" height="60" as="geometry"/>
                </mxCell>
                <mxCell id="246" style="edgeStyle=orthogonalEdgeStyle;rounded=0;orthogonalLoop=1;jettySize=auto;html=1;entryX=0;entryY=0.5;entryDx=0;entryDy=0;" parent="1" source="31" target="244" edge="1">
                    <mxGeometry relative="1" as="geometry"/>
                </mxCell>
                <mxCell id="31" value="Ans wasser tragen" style="html=1;align=center;verticalAlign=middle;absoluteArcSize=1;arcSize=10;dashed=0;fillColor=#00994D;rounded=1;sketch=1;" parent="1" vertex="1">
                    <mxGeometry x="300" y="575" width="140" height="60" as="geometry"/>
                </mxCell>
                <mxCell id="36" style="edgeStyle=orthogonalEdgeStyle;orthogonalLoop=1;jettySize=auto;html=1;entryX=0.5;entryY=0;entryDx=0;entryDy=0;exitX=0;exitY=0.5;exitDx=0;exitDy=0;sketch=1;" parent="1" source="149" target="35" edge="1">
                    <mxGeometry relative="1" as="geometry">
                        <mxPoint x="-625" y="605" as="sourcePoint"/>
                    </mxGeometry>
                </mxCell>
                <mxCell id="38" style="edgeStyle=orthogonalEdgeStyle;orthogonalLoop=1;jettySize=auto;html=1;entryX=0;entryY=0.5;entryDx=0;entryDy=0;sketch=1;" parent="1" source="35" target="37" edge="1">
                    <mxGeometry relative="1" as="geometry"/>
                </mxCell>
                <mxCell id="40" style="edgeStyle=orthogonalEdgeStyle;orthogonalLoop=1;jettySize=auto;html=1;sketch=1;" parent="1" source="35" target="39" edge="1">
                    <mxGeometry relative="1" as="geometry"/>
                </mxCell>
                <mxCell id="122" style="edgeStyle=orthogonalEdgeStyle;orthogonalLoop=1;jettySize=auto;html=1;sketch=1;entryX=0.5;entryY=0;entryDx=0;entryDy=0;" parent="1" source="35" target="166" edge="1">
                    <mxGeometry relative="1" as="geometry">
                        <mxPoint x="-885" y="1245" as="targetPoint"/>
                    </mxGeometry>
                </mxCell>
                <mxCell id="35" value="" style="rhombus;strokeColor=#F0F0F0;rounded=1;sketch=1;" parent="1" vertex="1">
                    <mxGeometry x="-905" y="710" width="30" height="30" as="geometry"/>
                </mxCell>
                <mxCell id="43" style="edgeStyle=orthogonalEdgeStyle;orthogonalLoop=1;jettySize=auto;html=1;entryX=0.5;entryY=0;entryDx=0;entryDy=0;sketch=1;" parent="1" source="37" target="42" edge="1">
                    <mxGeometry relative="1" as="geometry"/>
                </mxCell>
                <mxCell id="37" value="wieso wird es &lt;br&gt;schlimmer?" style="html=1;align=center;verticalAlign=middle;absoluteArcSize=1;arcSize=10;dashed=0;fillColor=#00994D;rounded=1;sketch=1;" parent="1" vertex="1">
                    <mxGeometry x="-620" y="695" width="140" height="60" as="geometry"/>
                </mxCell>
                <mxCell id="96" style="edgeStyle=orthogonalEdgeStyle;orthogonalLoop=1;jettySize=auto;html=1;exitX=0.5;exitY=1;exitDx=0;exitDy=0;sketch=1;" parent="1" source="39" target="95" edge="1">
                    <mxGeometry relative="1" as="geometry"/>
                </mxCell>
                <mxCell id="39" value="wieso werden die Eier&lt;br&gt;&amp;nbsp;hier abgelegt" style="html=1;align=center;verticalAlign=middle;absoluteArcSize=1;arcSize=10;dashed=0;fillColor=#00994D;rounded=1;sketch=1;" parent="1" vertex="1">
                    <mxGeometry x="-1180" y="695" width="140" height="60" as="geometry"/>
                </mxCell>
                <mxCell id="46" style="edgeStyle=orthogonalEdgeStyle;orthogonalLoop=1;jettySize=auto;html=1;entryX=0.5;entryY=0;entryDx=0;entryDy=0;sketch=1;" parent="1" source="41" target="45" edge="1">
                    <mxGeometry relative="1" as="geometry"/>
                </mxCell>
                <mxCell id="53" value="" style="edgeStyle=orthogonalEdgeStyle;orthogonalLoop=1;jettySize=auto;html=1;sketch=1;" parent="1" source="41" target="47" edge="1">
                    <mxGeometry relative="1" as="geometry"/>
                </mxCell>
                <mxCell id="159" style="edgeStyle=orthogonalEdgeStyle;orthogonalLoop=1;jettySize=auto;html=1;entryX=0;entryY=0.5;entryDx=0;entryDy=0;sketch=1;" parent="1" source="41" target="158" edge="1">
                    <mxGeometry relative="1" as="geometry"/>
                </mxCell>
                <mxCell id="41" value="" style="rhombus;strokeColor=#F0F0F0;rounded=1;sketch=1;" parent="1" vertex="1">
                    <mxGeometry x="-565" y="920" width="30" height="30" as="geometry"/>
                </mxCell>
                <mxCell id="44" style="edgeStyle=orthogonalEdgeStyle;orthogonalLoop=1;jettySize=auto;html=1;entryX=0.5;entryY=0;entryDx=0;entryDy=0;sketch=1;" parent="1" source="42" target="41" edge="1">
                    <mxGeometry relative="1" as="geometry"/>
                </mxCell>
                <mxCell id="42" value="Menge wie Blauwal" style="ellipse;whiteSpace=wrap;html=1;rounded=1;sketch=1;" parent="1" vertex="1">
                    <mxGeometry x="-620" y="800" width="140" height="70" as="geometry"/>
                </mxCell>
                <mxCell id="52" style="edgeStyle=orthogonalEdgeStyle;orthogonalLoop=1;jettySize=auto;html=1;entryX=0.5;entryY=0;entryDx=0;entryDy=0;exitX=0.5;exitY=1;exitDx=0;exitDy=0;sketch=1;startArrow=none;" parent="1" source="182" target="150" edge="1">
                    <mxGeometry relative="1" as="geometry">
                        <mxPoint x="-535" y="1055" as="targetPoint"/>
                    </mxGeometry>
                </mxCell>
                <mxCell id="184" style="edgeStyle=orthogonalEdgeStyle;rounded=1;orthogonalLoop=1;jettySize=auto;html=1;startArrow=none;startFill=0;sketch=1;" parent="1" source="45" target="182" edge="1">
                    <mxGeometry relative="1" as="geometry"/>
                </mxCell>
                <mxCell id="45" value="wieviel wiegt ein &lt;br&gt;Blauwal?" style="html=1;align=center;verticalAlign=middle;absoluteArcSize=1;arcSize=10;dashed=0;fillColor=#00994D;rounded=1;sketch=1;" parent="1" vertex="1">
                    <mxGeometry x="-620" y="980" width="140" height="60" as="geometry"/>
                </mxCell>
                <mxCell id="57" style="edgeStyle=orthogonalEdgeStyle;orthogonalLoop=1;jettySize=auto;html=1;entryX=0;entryY=0.5;entryDx=0;entryDy=0;exitX=0.5;exitY=1;exitDx=0;exitDy=0;sketch=1;" parent="1" source="47" target="150" edge="1">
                    <mxGeometry relative="1" as="geometry">
                        <mxPoint x="-635" y="1100" as="targetPoint"/>
                    </mxGeometry>
                </mxCell>
                <mxCell id="47" value="Immer so viel Müll&lt;br&gt;an Stränden?" style="html=1;align=center;verticalAlign=middle;absoluteArcSize=1;arcSize=10;dashed=0;fillColor=#00994D;rounded=1;sketch=1;" parent="1" vertex="1">
                    <mxGeometry x="-800" y="905" width="140" height="60" as="geometry"/>
                </mxCell>
                <mxCell id="67" style="edgeStyle=orthogonalEdgeStyle;orthogonalLoop=1;jettySize=auto;html=1;entryX=0.5;entryY=0;entryDx=0;entryDy=0;exitX=0.5;exitY=1;exitDx=0;exitDy=0;sketch=1;" parent="1" source="147" target="64" edge="1">
                    <mxGeometry relative="1" as="geometry">
                        <mxPoint x="840" y="640" as="sourcePoint"/>
                    </mxGeometry>
                </mxCell>
                <mxCell id="62" style="edgeStyle=orthogonalEdgeStyle;orthogonalLoop=1;jettySize=auto;html=1;entryX=0;entryY=0.5;entryDx=0;entryDy=0;sketch=1;" parent="1" source="64" target="65" edge="1">
                    <mxGeometry relative="1" as="geometry"/>
                </mxCell>
                <mxCell id="63" style="edgeStyle=orthogonalEdgeStyle;orthogonalLoop=1;jettySize=auto;html=1;entryX=1;entryY=0.5;entryDx=0;entryDy=0;sketch=1;" parent="1" source="64" target="66" edge="1">
                    <mxGeometry relative="1" as="geometry">
                        <mxPoint x="630" y="725" as="targetPoint"/>
                    </mxGeometry>
                </mxCell>
                <mxCell id="64" value="" style="rhombus;strokeColor=#F0F0F0;rounded=1;sketch=1;" parent="1" vertex="1">
                    <mxGeometry x="825" y="710" width="30" height="30" as="geometry"/>
                </mxCell>
                <mxCell id="71" style="edgeStyle=orthogonalEdgeStyle;orthogonalLoop=1;jettySize=auto;html=1;entryX=0.5;entryY=0;entryDx=0;entryDy=0;sketch=1;" parent="1" source="65" target="70" edge="1">
                    <mxGeometry relative="1" as="geometry"/>
                </mxCell>
                <mxCell id="65" value="&lt;span lang=&quot;DE&quot; style=&quot;font-size: 11.0pt ; line-height: 107% ; font-family: &amp;#34;calibri&amp;#34; , sans-serif&quot;&gt;Warst&lt;br/&gt;du schon überall?&lt;/span&gt;" style="html=1;align=center;verticalAlign=middle;absoluteArcSize=1;arcSize=10;dashed=0;fillColor=#00994D;rounded=1;sketch=1;" parent="1" vertex="1">
                    <mxGeometry x="920" y="695" width="140" height="60" as="geometry"/>
                </mxCell>
                <mxCell id="69" style="edgeStyle=orthogonalEdgeStyle;orthogonalLoop=1;jettySize=auto;html=1;sketch=1;" parent="1" source="66" target="68" edge="1">
                    <mxGeometry relative="1" as="geometry"/>
                </mxCell>
                <mxCell id="66" value="&lt;span lang=&quot;DE&quot; style=&quot;font-size: 11.0pt ; line-height: 107% ; font-family: &amp;#34;calibri&amp;#34; , sans-serif&quot;&gt;unterschiedliches Leben &lt;br&gt;es geben muss?&lt;/span&gt;" style="html=1;align=center;verticalAlign=middle;absoluteArcSize=1;arcSize=10;dashed=0;fillColor=#00994D;rounded=1;sketch=1;" parent="1" vertex="1">
                    <mxGeometry x="610" y="695" width="140" height="60" as="geometry"/>
                </mxCell>
                <mxCell id="252" style="edgeStyle=orthogonalEdgeStyle;rounded=0;orthogonalLoop=1;jettySize=auto;html=1;entryX=0;entryY=0.5;entryDx=0;entryDy=0;exitX=0.5;exitY=1;exitDx=0;exitDy=0;sketch=1;" parent="1" source="68" target="250" edge="1">
                    <mxGeometry relative="1" as="geometry"/>
                </mxCell>
                <mxCell id="68" value="50-80% allen Lebens im Meer" style="ellipse;whiteSpace=wrap;html=1;rounded=1;sketch=1;" parent="1" vertex="1">
                    <mxGeometry x="610" y="820" width="140" height="70" as="geometry"/>
                </mxCell>
                <mxCell id="79" style="edgeStyle=orthogonalEdgeStyle;orthogonalLoop=1;jettySize=auto;html=1;entryX=0.5;entryY=0;entryDx=0;entryDy=0;sketch=1;" parent="1" source="70" target="76" edge="1">
                    <mxGeometry relative="1" as="geometry"/>
                </mxCell>
                <mxCell id="70" value="Würde es gar nicht überall hinschaffen" style="ellipse;whiteSpace=wrap;html=1;rounded=1;sketch=1;" parent="1" vertex="1">
                    <mxGeometry x="920" y="820" width="140" height="70" as="geometry"/>
                </mxCell>
                <mxCell id="74" style="edgeStyle=orthogonalEdgeStyle;orthogonalLoop=1;jettySize=auto;html=1;entryX=0;entryY=0.5;entryDx=0;entryDy=0;sketch=1;" parent="1" source="76" target="77" edge="1">
                    <mxGeometry relative="1" as="geometry"/>
                </mxCell>
                <mxCell id="75" style="edgeStyle=orthogonalEdgeStyle;orthogonalLoop=1;jettySize=auto;html=1;sketch=1;" parent="1" source="76" target="78" edge="1">
                    <mxGeometry relative="1" as="geometry"/>
                </mxCell>
                <mxCell id="76" value="" style="rhombus;strokeColor=#F0F0F0;rounded=1;sketch=1;" parent="1" vertex="1">
                    <mxGeometry x="1125" y="955" width="30" height="30" as="geometry"/>
                </mxCell>
                <mxCell id="83" style="edgeStyle=orthogonalEdgeStyle;orthogonalLoop=1;jettySize=auto;html=1;entryX=0.5;entryY=0;entryDx=0;entryDy=0;sketch=1;" parent="1" source="77" target="82" edge="1">
                    <mxGeometry relative="1" as="geometry"/>
                </mxCell>
                <mxCell id="77" value="&lt;span lang=&quot;DE&quot; style=&quot;font-size: 11.0pt ; line-height: 107% ; font-family: &amp;#34;calibri&amp;#34; , sans-serif&quot;&gt;dass&lt;br/&gt;es den Meeren &lt;br&gt;immer schlechter geht?&lt;/span&gt;" style="html=1;align=center;verticalAlign=middle;absoluteArcSize=1;arcSize=10;dashed=0;fillColor=#00994D;rounded=1;sketch=1;" parent="1" vertex="1">
                    <mxGeometry x="1220" y="940" width="140" height="60" as="geometry"/>
                </mxCell>
                <mxCell id="81" style="edgeStyle=orthogonalEdgeStyle;orthogonalLoop=1;jettySize=auto;html=1;entryX=0.5;entryY=0;entryDx=0;entryDy=0;sketch=1;" parent="1" source="78" target="80" edge="1">
                    <mxGeometry relative="1" as="geometry"/>
                </mxCell>
                <mxCell id="78" value="&lt;span lang=&quot;DE&quot; style=&quot;font-size: 11.0pt ; line-height: 107% ; font-family: &amp;#34;calibri&amp;#34; , sans-serif&quot;&gt;&lt;span lang=&quot;DE&quot; style=&quot;font-size: 11.0pt ; line-height: 107% ; font-family: &amp;#34;calibri&amp;#34; , sans-serif&quot;&gt;wieviel Wasser es &lt;br&gt;auf der Erde gibt?&lt;/span&gt;&lt;br&gt;&lt;/span&gt;" style="html=1;align=center;verticalAlign=middle;absoluteArcSize=1;arcSize=10;dashed=0;fillColor=#00994D;rounded=1;sketch=1;" parent="1" vertex="1">
                    <mxGeometry x="920" y="940" width="140" height="60" as="geometry"/>
                </mxCell>
                <mxCell id="253" style="edgeStyle=orthogonalEdgeStyle;rounded=0;sketch=1;orthogonalLoop=1;jettySize=auto;html=1;entryX=1;entryY=0.5;entryDx=0;entryDy=0;" parent="1" source="80" target="250" edge="1">
                    <mxGeometry relative="1" as="geometry"/>
                </mxCell>
                <mxCell id="80" value="&lt;span lang=&quot;DE&quot; style=&quot;font-size: 11.0pt ; line-height: 107% ; font-family: &amp;#34;calibri&amp;#34; , sans-serif&quot;&gt;96%&lt;br/&gt;des Wassers in den Meeren&lt;/span&gt;" style="ellipse;whiteSpace=wrap;html=1;rounded=1;sketch=1;" parent="1" vertex="1">
                    <mxGeometry x="920" y="1040" width="140" height="70" as="geometry"/>
                </mxCell>
                <mxCell id="90" style="edgeStyle=orthogonalEdgeStyle;orthogonalLoop=1;jettySize=auto;html=1;entryX=0.5;entryY=0;entryDx=0;entryDy=0;sketch=1;" parent="1" source="82" target="86" edge="1">
                    <mxGeometry relative="1" as="geometry"/>
                </mxCell>
                <mxCell id="82" value="&lt;span lang=&quot;DE&quot; style=&quot;font-size: 11.0pt ; line-height: 107% ; font-family: &amp;#34;calibri&amp;#34; , sans-serif&quot;&gt;&lt;span lang=&quot;DE&quot; style=&quot;font-size: 11.0pt ; line-height: 107% ; font-family: &amp;#34;calibri&amp;#34; , sans-serif&quot;&gt;Meere&lt;br/&gt;werden immer wärmer&lt;/span&gt;&lt;br&gt;&lt;/span&gt;" style="ellipse;whiteSpace=wrap;html=1;rounded=1;sketch=1;" parent="1" vertex="1">
                    <mxGeometry x="1220" y="1050" width="140" height="70" as="geometry"/>
                </mxCell>
                <mxCell id="84" style="edgeStyle=orthogonalEdgeStyle;orthogonalLoop=1;jettySize=auto;html=1;entryX=0;entryY=0.5;entryDx=0;entryDy=0;sketch=1;" parent="1" source="86" target="87" edge="1">
                    <mxGeometry relative="1" as="geometry"/>
                </mxCell>
                <mxCell id="85" style="edgeStyle=orthogonalEdgeStyle;orthogonalLoop=1;jettySize=auto;html=1;sketch=1;" parent="1" source="86" target="88" edge="1">
                    <mxGeometry relative="1" as="geometry"/>
                </mxCell>
                <mxCell id="86" value="" style="rhombus;strokeColor=#F0F0F0;rounded=1;sketch=1;" parent="1" vertex="1">
                    <mxGeometry x="1425" y="1185" width="30" height="30" as="geometry"/>
                </mxCell>
                <mxCell id="94" style="edgeStyle=orthogonalEdgeStyle;orthogonalLoop=1;jettySize=auto;html=1;entryX=0.5;entryY=0;entryDx=0;entryDy=0;sketch=1;" parent="1" source="87" target="93" edge="1">
                    <mxGeometry relative="1" as="geometry"/>
                </mxCell>
                <mxCell id="87" value="&lt;span lang=&quot;DE&quot; style=&quot;font-size: 11.0pt ; line-height: 107% ; font-family: &amp;#34;calibri&amp;#34; , sans-serif&quot;&gt;dass&lt;br/&gt;das Meer auch &lt;br&gt;Sauerstoff selbst &lt;br&gt;produziert?&lt;/span&gt;" style="html=1;align=center;verticalAlign=middle;absoluteArcSize=1;arcSize=10;dashed=0;fillColor=#00994D;rounded=1;sketch=1;" parent="1" vertex="1">
                    <mxGeometry x="1520" y="1170" width="140" height="60" as="geometry"/>
                </mxCell>
                <mxCell id="92" style="edgeStyle=orthogonalEdgeStyle;orthogonalLoop=1;jettySize=auto;html=1;sketch=1;" parent="1" source="88" target="91" edge="1">
                    <mxGeometry relative="1" as="geometry"/>
                </mxCell>
                <mxCell id="88" value="&lt;span lang=&quot;DE&quot; style=&quot;font-size: 11.0pt ; line-height: 107% ; font-family: &amp;#34;calibri&amp;#34; , sans-serif&quot;&gt;&lt;span lang=&quot;DE&quot; style=&quot;font-size: 11.0pt ; line-height: 107% ; font-family: &amp;#34;calibri&amp;#34; , sans-serif&quot;&gt;Welche Tiere leiden &lt;br&gt;denn noch unter &lt;br&gt;der Wassererwärmung?&lt;/span&gt;&lt;br&gt;&lt;/span&gt;" style="html=1;align=center;verticalAlign=middle;absoluteArcSize=1;arcSize=10;dashed=0;fillColor=#00994D;rounded=1;sketch=1;" parent="1" vertex="1">
                    <mxGeometry x="1220" y="1170" width="140" height="60" as="geometry"/>
                </mxCell>
                <mxCell id="282" style="edgeStyle=orthogonalEdgeStyle;rounded=0;sketch=1;orthogonalLoop=1;jettySize=auto;html=1;entryX=1;entryY=0;entryDx=0;entryDy=0;" parent="1" source="91" target="281" edge="1">
                    <mxGeometry relative="1" as="geometry"/>
                </mxCell>
                <mxCell id="91" value="&lt;span lang=&quot;DE&quot; style=&quot;font-size: 11.0pt ; line-height: 107% ; font-family: &amp;#34;calibri&amp;#34; , sans-serif&quot;&gt;&lt;span lang=&quot;DE&quot; style=&quot;font-size: 11.0pt ; line-height: 107% ; font-family: &amp;#34;calibri&amp;#34; , sans-serif&quot;&gt;Andere&lt;br/&gt;marine Arten haben genauso&amp;nbsp;&lt;/span&gt;&lt;br&gt;&lt;/span&gt;" style="ellipse;whiteSpace=wrap;html=1;rounded=1;sketch=1;" parent="1" vertex="1">
                    <mxGeometry x="1220" y="1270" width="140" height="70" as="geometry"/>
                </mxCell>
                <mxCell id="283" style="edgeStyle=orthogonalEdgeStyle;rounded=0;sketch=1;orthogonalLoop=1;jettySize=auto;html=1;entryX=1;entryY=0.5;entryDx=0;entryDy=0;exitX=0.5;exitY=1;exitDx=0;exitDy=0;" parent="1" source="93" target="281" edge="1">
                    <mxGeometry relative="1" as="geometry"/>
                </mxCell>
                <mxCell id="93" value="&lt;span lang=&quot;DE&quot; style=&quot;font-size: 11.0pt ; line-height: 107% ; font-family: &amp;#34;calibri&amp;#34; , sans-serif&quot;&gt;&lt;span lang=&quot;DE&quot; style=&quot;font-size: 11.0pt ; line-height: 107% ; font-family: &amp;#34;calibri&amp;#34; , sans-serif&quot;&gt;Phytoplankton&lt;br&gt;oder&amp;nbsp;&lt;/span&gt;&lt;span lang=&quot;DE&quot; style=&quot;font-size: 11.0pt ; line-height: 107% ; font-family: &amp;#34;calibri&amp;#34; , sans-serif&quot;&gt;Seegraswiesen&lt;/span&gt;&lt;br&gt;&lt;/span&gt;" style="ellipse;whiteSpace=wrap;html=1;rounded=1;sketch=1;" parent="1" vertex="1">
                    <mxGeometry x="1520" y="1260" width="140" height="70" as="geometry"/>
                </mxCell>
                <mxCell id="102" style="edgeStyle=orthogonalEdgeStyle;orthogonalLoop=1;jettySize=auto;html=1;entryX=0.5;entryY=0;entryDx=0;entryDy=0;sketch=1;" parent="1" source="95" target="99" edge="1">
                    <mxGeometry relative="1" as="geometry"/>
                </mxCell>
                <mxCell id="95" value="Schildkröten kehern zurück an Geburtsstrand" style="ellipse;whiteSpace=wrap;html=1;rounded=1;sketch=1;" parent="1" vertex="1">
                    <mxGeometry x="-1180" y="800" width="140" height="70" as="geometry"/>
                </mxCell>
                <mxCell id="97" style="edgeStyle=orthogonalEdgeStyle;orthogonalLoop=1;jettySize=auto;html=1;entryX=0;entryY=0.5;entryDx=0;entryDy=0;sketch=1;" parent="1" source="99" target="100" edge="1">
                    <mxGeometry relative="1" as="geometry"/>
                </mxCell>
                <mxCell id="98" style="edgeStyle=orthogonalEdgeStyle;orthogonalLoop=1;jettySize=auto;html=1;sketch=1;" parent="1" source="99" target="101" edge="1">
                    <mxGeometry relative="1" as="geometry"/>
                </mxCell>
                <mxCell id="99" value="" style="rhombus;strokeColor=#F0F0F0;rounded=1;sketch=1;" parent="1" vertex="1">
                    <mxGeometry x="-1275" y="920" width="30" height="30" as="geometry"/>
                </mxCell>
                <mxCell id="104" style="edgeStyle=orthogonalEdgeStyle;orthogonalLoop=1;jettySize=auto;html=1;sketch=1;" parent="1" source="100" target="103" edge="1">
                    <mxGeometry relative="1" as="geometry"/>
                </mxCell>
                <mxCell id="100" value="wieso kommen&lt;br&gt;sie zurück?" style="html=1;align=center;verticalAlign=middle;absoluteArcSize=1;arcSize=10;dashed=0;fillColor=#00994D;rounded=1;sketch=1;" parent="1" vertex="1">
                    <mxGeometry x="-1180" y="905" width="140" height="60" as="geometry"/>
                </mxCell>
                <mxCell id="106" style="edgeStyle=orthogonalEdgeStyle;orthogonalLoop=1;jettySize=auto;html=1;entryX=0.5;entryY=0;entryDx=0;entryDy=0;sketch=1;" parent="1" source="101" target="105" edge="1">
                    <mxGeometry relative="1" as="geometry"/>
                </mxCell>
                <mxCell id="101" value="&lt;span lang=&quot;DE&quot; style=&quot;font-size: 11.0pt ; line-height: 107% ; font-family: &amp;#34;calibri&amp;#34; , sans-serif&quot;&gt;Wie&lt;br/&gt;viele Arten von &lt;br&gt;WSchildkröten gibt es&amp;nbsp;&lt;/span&gt;" style="html=1;align=center;verticalAlign=middle;absoluteArcSize=1;arcSize=10;dashed=0;fillColor=#00994D;rounded=1;sketch=1;" parent="1" vertex="1">
                    <mxGeometry x="-1480" y="905" width="140" height="60" as="geometry"/>
                </mxCell>
                <mxCell id="109" style="edgeStyle=orthogonalEdgeStyle;orthogonalLoop=1;jettySize=auto;html=1;entryX=1;entryY=0.5;entryDx=0;entryDy=0;exitX=0.5;exitY=1;exitDx=0;exitDy=0;sketch=1;" parent="1" source="103" target="107" edge="1">
                    <mxGeometry relative="1" as="geometry"/>
                </mxCell>
                <mxCell id="103" value="Bisher unbekannt" style="ellipse;whiteSpace=wrap;html=1;rounded=1;sketch=1;" parent="1" vertex="1">
                    <mxGeometry x="-1180" y="1030" width="140" height="70" as="geometry"/>
                </mxCell>
                <mxCell id="108" style="edgeStyle=orthogonalEdgeStyle;orthogonalLoop=1;jettySize=auto;html=1;entryX=0;entryY=0.5;entryDx=0;entryDy=0;exitX=0.5;exitY=1;exitDx=0;exitDy=0;sketch=1;" parent="1" source="105" target="107" edge="1">
                    <mxGeometry relative="1" as="geometry"/>
                </mxCell>
                <mxCell id="105" value="Bisher unbekannt" style="ellipse;whiteSpace=wrap;html=1;rounded=1;sketch=1;" parent="1" vertex="1">
                    <mxGeometry x="-1480" y="1030" width="140" height="70" as="geometry"/>
                </mxCell>
                <mxCell id="118" style="edgeStyle=orthogonalEdgeStyle;orthogonalLoop=1;jettySize=auto;html=1;entryX=0.5;entryY=0;entryDx=0;entryDy=0;sketch=1;" parent="1" source="107" target="115" edge="1">
                    <mxGeometry relative="1" as="geometry"/>
                </mxCell>
                <mxCell id="107" value="" style="rhombus;strokeColor=#F0F0F0;rounded=1;sketch=1;" parent="1" vertex="1">
                    <mxGeometry x="-1275" y="1130" width="30" height="30" as="geometry"/>
                </mxCell>
                <mxCell id="127" style="edgeStyle=orthogonalEdgeStyle;orthogonalLoop=1;jettySize=auto;html=1;entryX=0.5;entryY=0;entryDx=0;entryDy=0;sketch=1;" parent="1" target="126" edge="1">
                    <mxGeometry relative="1" as="geometry">
                        <mxPoint x="-1110" y="1285" as="sourcePoint"/>
                    </mxGeometry>
                </mxCell>
                <mxCell id="111" value="&lt;span lang=&quot;DE&quot; style=&quot;font-size: 11.0pt ; line-height: 107% ; font-family: &amp;#34;calibri&amp;#34; , sans-serif&quot;&gt;wieso&lt;br/&gt;schaust du nach&lt;br&gt;&amp;nbsp;den Schildkrötenjungen?&lt;/span&gt;" style="html=1;align=center;verticalAlign=middle;absoluteArcSize=1;arcSize=10;dashed=0;fillColor=#00994D;rounded=1;sketch=1;" parent="1" vertex="1">
                    <mxGeometry x="-1180" y="1225" width="140" height="60" as="geometry"/>
                </mxCell>
                <mxCell id="113" style="edgeStyle=orthogonalEdgeStyle;orthogonalLoop=1;jettySize=auto;html=1;sketch=1;entryX=0;entryY=0.5;entryDx=0;entryDy=0;" parent="1" source="115" target="111" edge="1">
                    <mxGeometry relative="1" as="geometry">
                        <mxPoint x="-1160" y="1255" as="targetPoint"/>
                    </mxGeometry>
                </mxCell>
                <mxCell id="114" style="edgeStyle=orthogonalEdgeStyle;orthogonalLoop=1;jettySize=auto;html=1;sketch=1;entryX=1;entryY=0.5;entryDx=0;entryDy=0;" parent="1" source="115" target="117" edge="1">
                    <mxGeometry relative="1" as="geometry">
                        <mxPoint x="-1370" y="1240" as="targetPoint"/>
                    </mxGeometry>
                </mxCell>
                <mxCell id="115" value="" style="rhombus;strokeColor=#F0F0F0;rounded=1;sketch=1;" parent="1" vertex="1">
                    <mxGeometry x="-1275" y="1240" width="30" height="30" as="geometry"/>
                </mxCell>
                <mxCell id="125" style="edgeStyle=orthogonalEdgeStyle;orthogonalLoop=1;jettySize=auto;html=1;entryX=0.5;entryY=0;entryDx=0;entryDy=0;sketch=1;exitX=0.5;exitY=1;exitDx=0;exitDy=0;" parent="1" source="117" target="124" edge="1">
                    <mxGeometry relative="1" as="geometry">
                        <mxPoint x="-1410" y="1285" as="sourcePoint"/>
                    </mxGeometry>
                </mxCell>
                <mxCell id="117" value="&lt;span lang=&quot;DE&quot; style=&quot;font-size: 11.0pt ; line-height: 107% ; font-family: &amp;#34;calibri&amp;#34; , sans-serif&quot;&gt;Warum&lt;br/&gt;sind sie vom&lt;br&gt;Aussterben bedroht?&lt;/span&gt;" style="html=1;align=center;verticalAlign=middle;absoluteArcSize=1;arcSize=10;dashed=0;fillColor=#00994D;rounded=1;sketch=1;" parent="1" vertex="1">
                    <mxGeometry x="-1480" y="1225" width="140" height="60" as="geometry"/>
                </mxCell>
                <mxCell id="134" style="edgeStyle=orthogonalEdgeStyle;orthogonalLoop=1;jettySize=auto;html=1;entryX=0.5;entryY=0;entryDx=0;entryDy=0;sketch=1;" parent="1" source="124" target="130" edge="1">
                    <mxGeometry relative="1" as="geometry"/>
                </mxCell>
                <mxCell id="124" value="Wegen Menschen" style="ellipse;whiteSpace=wrap;html=1;rounded=1;sketch=1;" parent="1" vertex="1">
                    <mxGeometry x="-1480" y="1335" width="140" height="70" as="geometry"/>
                </mxCell>
                <mxCell id="240" style="edgeStyle=orthogonalEdgeStyle;rounded=0;orthogonalLoop=1;jettySize=auto;html=1;entryX=0;entryY=0.5;entryDx=0;entryDy=0;" parent="1" source="126" target="239" edge="1">
                    <mxGeometry relative="1" as="geometry"/>
                </mxCell>
                <mxCell id="126" value="Weil es sonst niemand macht" style="ellipse;whiteSpace=wrap;html=1;rounded=1;sketch=1;" parent="1" vertex="1">
                    <mxGeometry x="-1180" y="1335" width="140" height="70" as="geometry"/>
                </mxCell>
                <mxCell id="128" style="edgeStyle=orthogonalEdgeStyle;orthogonalLoop=1;jettySize=auto;html=1;entryX=0;entryY=0.5;entryDx=0;entryDy=0;sketch=1;" parent="1" source="130" target="131" edge="1">
                    <mxGeometry relative="1" as="geometry"/>
                </mxCell>
                <mxCell id="129" style="edgeStyle=orthogonalEdgeStyle;orthogonalLoop=1;jettySize=auto;html=1;sketch=1;" parent="1" source="130" target="132" edge="1">
                    <mxGeometry relative="1" as="geometry"/>
                </mxCell>
                <mxCell id="130" value="" style="rhombus;strokeColor=#F0F0F0;rounded=1;sketch=1;" parent="1" vertex="1">
                    <mxGeometry x="-1425" y="1490" width="30" height="30" as="geometry"/>
                </mxCell>
                <mxCell id="171" style="edgeStyle=orthogonalEdgeStyle;rounded=0;orthogonalLoop=1;jettySize=auto;html=1;entryX=1;entryY=0.5;entryDx=0;entryDy=0;exitX=0.5;exitY=1;exitDx=0;exitDy=0;" parent="1" source="173" target="168" edge="1">
                    <mxGeometry relative="1" as="geometry">
                        <mxPoint x="-1260" y="1650" as="sourcePoint"/>
                    </mxGeometry>
                </mxCell>
                <mxCell id="174" style="edgeStyle=orthogonalEdgeStyle;rounded=0;orthogonalLoop=1;jettySize=auto;html=1;" parent="1" source="131" target="173" edge="1">
                    <mxGeometry relative="1" as="geometry"/>
                </mxCell>
                <mxCell id="131" value="Fischerei besser &lt;br&gt;kontrollieren?" style="html=1;align=center;verticalAlign=middle;absoluteArcSize=1;arcSize=10;dashed=0;fillColor=#00994D;rounded=1;sketch=1;" parent="1" vertex="1">
                    <mxGeometry x="-1330" y="1475" width="140" height="60" as="geometry"/>
                </mxCell>
                <mxCell id="136" style="edgeStyle=orthogonalEdgeStyle;orthogonalLoop=1;jettySize=auto;html=1;entryX=0.5;entryY=0;entryDx=0;entryDy=0;sketch=1;" parent="1" source="132" target="135" edge="1">
                    <mxGeometry relative="1" as="geometry"/>
                </mxCell>
                <mxCell id="132" value="&lt;font face=&quot;calibri, sans-serif&quot;&gt;&lt;span style=&quot;font-size: 14.6667px&quot;&gt;Was meinst du &lt;br&gt;mit Beifang?&lt;/span&gt;&lt;/font&gt;" style="html=1;align=center;verticalAlign=middle;absoluteArcSize=1;arcSize=10;dashed=0;fillColor=#00994D;rounded=1;sketch=1;" parent="1" vertex="1">
                    <mxGeometry x="-1630" y="1475" width="140" height="60" as="geometry"/>
                </mxCell>
                <mxCell id="142" style="edgeStyle=orthogonalEdgeStyle;orthogonalLoop=1;jettySize=auto;html=1;entryX=0.5;entryY=0;entryDx=0;entryDy=0;sketch=1;" parent="1" source="135" target="139" edge="1">
                    <mxGeometry relative="1" as="geometry"/>
                </mxCell>
                <mxCell id="135" value="Ungewollt gefangene Lebewesen" style="ellipse;whiteSpace=wrap;html=1;rounded=1;sketch=1;" parent="1" vertex="1">
                    <mxGeometry x="-1800" y="1575" width="140" height="70" as="geometry"/>
                </mxCell>
                <mxCell id="137" style="edgeStyle=orthogonalEdgeStyle;orthogonalLoop=1;jettySize=auto;html=1;entryX=0;entryY=0.5;entryDx=0;entryDy=0;sketch=1;" parent="1" source="139" target="140" edge="1">
                    <mxGeometry relative="1" as="geometry"/>
                </mxCell>
                <mxCell id="138" style="edgeStyle=orthogonalEdgeStyle;orthogonalLoop=1;jettySize=auto;html=1;sketch=1;" parent="1" source="139" target="141" edge="1">
                    <mxGeometry relative="1" as="geometry"/>
                </mxCell>
                <mxCell id="139" value="" style="rhombus;strokeColor=#F0F0F0;rounded=1;sketch=1;" parent="1" vertex="1">
                    <mxGeometry x="-1745" y="1710" width="30" height="30" as="geometry"/>
                </mxCell>
                <mxCell id="144" style="edgeStyle=orthogonalEdgeStyle;orthogonalLoop=1;jettySize=auto;html=1;sketch=1;" parent="1" source="140" target="143" edge="1">
                    <mxGeometry relative="1" as="geometry"/>
                </mxCell>
                <mxCell id="140" value="&lt;span lang=&quot;DE&quot; style=&quot;font-size: 11.0pt ; line-height: 107% ; font-family: &amp;#34;calibri&amp;#34; , sans-serif&quot;&gt;Was&lt;br/&gt;meinst du?&lt;/span&gt;" style="html=1;align=center;verticalAlign=middle;absoluteArcSize=1;arcSize=10;dashed=0;fillColor=#00994D;rounded=1;sketch=1;" parent="1" vertex="1">
                    <mxGeometry x="-1650" y="1695" width="140" height="60" as="geometry"/>
                </mxCell>
                <mxCell id="155" style="edgeStyle=orthogonalEdgeStyle;orthogonalLoop=1;jettySize=auto;html=1;entryX=0.5;entryY=0;entryDx=0;entryDy=0;sketch=1;" parent="1" source="141" target="145" edge="1">
                    <mxGeometry relative="1" as="geometry"/>
                </mxCell>
                <mxCell id="141" value="&lt;span lang=&quot;DE&quot; style=&quot;font-size: 11.0pt ; line-height: 107% ; font-family: &amp;#34;calibri&amp;#34; , sans-serif&quot;&gt;Was&lt;br/&gt;sind denn das &lt;br&gt;für Fangmethoden?&lt;/span&gt;" style="html=1;align=center;verticalAlign=middle;absoluteArcSize=1;arcSize=10;dashed=0;fillColor=#00994D;rounded=1;sketch=1;" parent="1" vertex="1">
                    <mxGeometry x="-1950" y="1695" width="140" height="60" as="geometry"/>
                </mxCell>
                <mxCell id="170" style="edgeStyle=orthogonalEdgeStyle;rounded=0;orthogonalLoop=1;jettySize=auto;html=1;entryX=0.5;entryY=0;entryDx=0;entryDy=0;exitX=0.5;exitY=1;exitDx=0;exitDy=0;" parent="1" source="143" target="168" edge="1">
                    <mxGeometry relative="1" as="geometry"/>
                </mxCell>
                <mxCell id="143" value="Das Fischen lassen" style="ellipse;whiteSpace=wrap;html=1;rounded=1;sketch=1;" parent="1" vertex="1">
                    <mxGeometry x="-1650" y="1795" width="140" height="70" as="geometry"/>
                </mxCell>
                <mxCell id="169" style="edgeStyle=orthogonalEdgeStyle;rounded=0;orthogonalLoop=1;jettySize=auto;html=1;entryX=0;entryY=0.5;entryDx=0;entryDy=0;exitX=0.5;exitY=1;exitDx=0;exitDy=0;" parent="1" source="145" target="168" edge="1">
                    <mxGeometry relative="1" as="geometry"/>
                </mxCell>
                <mxCell id="145" value="Trawling" style="ellipse;whiteSpace=wrap;html=1;rounded=1;sketch=1;" parent="1" vertex="1">
                    <mxGeometry x="-1950" y="1795" width="140" height="70" as="geometry"/>
                </mxCell>
                <mxCell id="147" value="Am Wasser" style="html=1;align=center;verticalAlign=top;absoluteArcSize=1;arcSize=10;dashed=0;fillColor=#FFB366;rounded=1;sketch=1;" parent="1" vertex="1">
                    <mxGeometry x="770" y="585" width="140" height="40" as="geometry"/>
                </mxCell>
                <mxCell id="149" value="Müllstrand" style="html=1;align=center;verticalAlign=top;absoluteArcSize=1;arcSize=10;dashed=0;fillColor=#FFB366;rounded=1;sketch=1;" parent="1" vertex="1">
                    <mxGeometry x="-625" y="585" width="140" height="40" as="geometry"/>
                </mxCell>
                <mxCell id="152" style="edgeStyle=orthogonalEdgeStyle;orthogonalLoop=1;jettySize=auto;html=1;entryX=0.5;entryY=0;entryDx=0;entryDy=0;sketch=1;exitX=0.5;exitY=1;exitDx=0;exitDy=0;" parent="1" source="150" target="151" edge="1">
                    <mxGeometry relative="1" as="geometry"/>
                </mxCell>
                <mxCell id="150" value="" style="rhombus;strokeColor=#F0F0F0;rounded=1;sketch=1;" parent="1" vertex="1">
                    <mxGeometry x="-565" y="1310" width="30" height="30" as="geometry"/>
                </mxCell>
                <mxCell id="180" style="edgeStyle=orthogonalEdgeStyle;rounded=0;orthogonalLoop=1;jettySize=auto;html=1;entryX=0.5;entryY=0;entryDx=0;entryDy=0;exitX=0.5;exitY=1;exitDx=0;exitDy=0;" parent="1" source="151" target="179" edge="1">
                    <mxGeometry relative="1" as="geometry">
                        <mxPoint x="220" y="1550" as="sourcePoint"/>
                    </mxGeometry>
                </mxCell>
                <mxCell id="151" value="GPGP" style="html=1;align=center;verticalAlign=top;absoluteArcSize=1;arcSize=10;dashed=0;fillColor=#FFB366;rounded=1;sketch=1;" parent="1" vertex="1">
                    <mxGeometry x="150" y="1495" width="140" height="40" as="geometry"/>
                </mxCell>
                <mxCell id="156" value="&lt;h1&gt;Zusatz-Ideen&lt;/h1&gt;&lt;p&gt;&lt;/p&gt;&lt;ul&gt;&lt;li&gt;Müll sameln als Option =&amp;gt; Item Reward&lt;/li&gt;&lt;li&gt;Schätzung geben (bei Anzahl Meeresschildkröten usw) =&amp;gt; gibt mehr Punkte&lt;/li&gt;&lt;li&gt;Punktesystem -&amp;gt; Bei viel Informationen mehr Punkte&lt;/li&gt;&lt;/ul&gt;&lt;p&gt;&lt;/p&gt;" style="text;html=1;strokeColor=none;fillColor=none;spacing=5;spacingTop=-20;whiteSpace=wrap;overflow=hidden;rounded=1;sketch=1;" parent="1" vertex="1">
                    <mxGeometry x="-1840" y="300" width="270" height="220" as="geometry"/>
                </mxCell>
                <mxCell id="163" style="edgeStyle=orthogonalEdgeStyle;orthogonalLoop=1;jettySize=auto;html=1;entryX=0.5;entryY=0;entryDx=0;entryDy=0;sketch=1;" parent="1" source="158" target="161" edge="1">
                    <mxGeometry relative="1" as="geometry"/>
                </mxCell>
                <mxCell id="158" value="Müll sammeln" style="html=1;align=center;verticalAlign=middle;absoluteArcSize=1;arcSize=10;dashed=0;fillColor=#00994D;rounded=1;sketch=1;" parent="1" vertex="1">
                    <mxGeometry x="-440" y="905" width="140" height="60" as="geometry"/>
                </mxCell>
                <mxCell id="162" style="edgeStyle=orthogonalEdgeStyle;orthogonalLoop=1;jettySize=auto;html=1;exitX=0.5;exitY=1;exitDx=0;exitDy=0;sketch=1;entryX=1;entryY=0.5;entryDx=0;entryDy=0;" parent="1" source="161" target="150" edge="1">
                    <mxGeometry relative="1" as="geometry">
                        <mxPoint x="-530" y="1325" as="targetPoint"/>
                    </mxGeometry>
                </mxCell>
                <mxCell id="161" value="Müll Trophähe" style="ellipse;whiteSpace=wrap;html=1;rounded=1;sketch=1;" parent="1" vertex="1">
                    <mxGeometry x="-440" y="1120" width="140" height="70" as="geometry"/>
                </mxCell>
                <mxCell id="165" style="edgeStyle=orthogonalEdgeStyle;orthogonalLoop=1;jettySize=auto;html=1;sketch=1;" parent="1" source="166" edge="1">
                    <mxGeometry relative="1" as="geometry">
                        <mxPoint x="-890" y="920" as="targetPoint"/>
                    </mxGeometry>
                </mxCell>
                <mxCell id="166" value="&lt;span lang=&quot;DE&quot; style=&quot;font-size: 11.0pt ; line-height: 107% ; font-family: &amp;#34;calibri&amp;#34; , sans-serif&quot;&gt;wieso&lt;br/&gt;schaust du nach&lt;br&gt;&amp;nbsp;den Schildkrötenjungen?&lt;/span&gt;" style="html=1;align=center;verticalAlign=middle;absoluteArcSize=1;arcSize=10;dashed=0;fillColor=#00994D;rounded=1;sketch=1;" parent="1" vertex="1">
                    <mxGeometry x="-960" y="805" width="140" height="60" as="geometry"/>
                </mxCell>
                <mxCell id="242" style="edgeStyle=orthogonalEdgeStyle;rounded=0;orthogonalLoop=1;jettySize=auto;html=1;entryX=1;entryY=0.5;entryDx=0;entryDy=0;" parent="1" source="167" target="239" edge="1">
                    <mxGeometry relative="1" as="geometry"/>
                </mxCell>
                <mxCell id="167" value="Weil es sonst niemand macht" style="ellipse;whiteSpace=wrap;html=1;rounded=1;sketch=1;" parent="1" vertex="1">
                    <mxGeometry x="-960" y="900" width="140" height="70" as="geometry"/>
                </mxCell>
                <mxCell id="176" style="edgeStyle=orthogonalEdgeStyle;rounded=0;orthogonalLoop=1;jettySize=auto;html=1;entryX=0.5;entryY=0;entryDx=0;entryDy=0;" parent="1" target="175" edge="1">
                    <mxGeometry relative="1" as="geometry">
                        <mxPoint x="-1370" y="2005" as="sourcePoint"/>
                    </mxGeometry>
                </mxCell>
                <mxCell id="168" value="" style="rhombus;strokeColor=#F0F0F0;rounded=1;sketch=1;arcSize=0;" parent="1" vertex="1">
                    <mxGeometry x="-1385" y="1990" width="30" height="30" as="geometry"/>
                </mxCell>
                <mxCell id="173" value="Theoretisch schon,&lt;br&gt;praktisch: Geld" style="ellipse;whiteSpace=wrap;html=1;rounded=1;sketch=1;" parent="1" vertex="1">
                    <mxGeometry x="-1330" y="1575" width="140" height="70" as="geometry"/>
                </mxCell>
                <mxCell id="178" style="edgeStyle=orthogonalEdgeStyle;rounded=0;orthogonalLoop=1;jettySize=auto;html=1;entryX=0.5;entryY=0;entryDx=0;entryDy=0;" parent="1" source="175" target="177" edge="1">
                    <mxGeometry relative="1" as="geometry"/>
                </mxCell>
                <mxCell id="175" value="End Scene 1&lt;br&gt;" style="html=1;align=center;verticalAlign=top;absoluteArcSize=1;arcSize=10;dashed=0;fillColor=#FFB366;rounded=1;sketch=1;" parent="1" vertex="1">
                    <mxGeometry x="-1440" y="2110" width="140" height="40" as="geometry"/>
                </mxCell>
                <mxCell id="177" value="" style="ellipse;html=1;shape=endState;fillColor=#000000;sketch=1;strokeColor=#FFFFFF;" parent="1" vertex="1">
                    <mxGeometry x="-1385" y="2200" width="30" height="30" as="geometry"/>
                </mxCell>
                <mxCell id="187" style="edgeStyle=orthogonalEdgeStyle;rounded=1;sketch=1;orthogonalLoop=1;jettySize=auto;html=1;entryX=1;entryY=0.5;entryDx=0;entryDy=0;startArrow=none;startFill=0;" parent="1" source="179" target="186" edge="1">
                    <mxGeometry relative="1" as="geometry"/>
                </mxCell>
                <mxCell id="188" style="edgeStyle=orthogonalEdgeStyle;rounded=1;sketch=1;orthogonalLoop=1;jettySize=auto;html=1;entryX=0;entryY=0.5;entryDx=0;entryDy=0;startArrow=none;startFill=0;" parent="1" source="179" target="185" edge="1">
                    <mxGeometry relative="1" as="geometry"/>
                </mxCell>
                <mxCell id="179" value="" style="rhombus;strokeColor=#F0F0F0;rounded=1;sketch=1;" parent="1" vertex="1">
                    <mxGeometry x="205" y="1605" width="30" height="30" as="geometry"/>
                </mxCell>
                <mxCell id="182" value="viel" style="ellipse;whiteSpace=wrap;html=1;rounded=1;sketch=1;" parent="1" vertex="1">
                    <mxGeometry x="-620" y="1120" width="140" height="70" as="geometry"/>
                </mxCell>
                <mxCell id="192" style="edgeStyle=orthogonalEdgeStyle;rounded=1;sketch=1;orthogonalLoop=1;jettySize=auto;html=1;startArrow=none;startFill=0;" parent="1" source="185" target="191" edge="1">
                    <mxGeometry relative="1" as="geometry"/>
                </mxCell>
                <mxCell id="185" value="Wie groß ist das?" style="html=1;align=center;verticalAlign=middle;absoluteArcSize=1;arcSize=10;dashed=0;fillColor=#00994D;rounded=1;sketch=1;" parent="1" vertex="1">
                    <mxGeometry x="340" y="1590" width="140" height="60" as="geometry"/>
                </mxCell>
                <mxCell id="190" style="edgeStyle=orthogonalEdgeStyle;rounded=1;sketch=1;orthogonalLoop=1;jettySize=auto;html=1;startArrow=none;startFill=0;" parent="1" source="186" target="189" edge="1">
                    <mxGeometry relative="1" as="geometry"/>
                </mxCell>
                <mxCell id="186" value="Wieviel Müll ist da?" style="html=1;align=center;verticalAlign=middle;absoluteArcSize=1;arcSize=10;dashed=0;fillColor=#00994D;rounded=1;sketch=1;" parent="1" vertex="1">
                    <mxGeometry x="-30" y="1590" width="140" height="60" as="geometry"/>
                </mxCell>
                <mxCell id="204" style="edgeStyle=orthogonalEdgeStyle;rounded=1;sketch=1;orthogonalLoop=1;jettySize=auto;html=1;entryX=0;entryY=0;entryDx=0;entryDy=0;startArrow=none;startFill=0;" parent="1" source="189" target="195" edge="1">
                    <mxGeometry relative="1" as="geometry"/>
                </mxCell>
                <mxCell id="189" value="sehr viel" style="ellipse;whiteSpace=wrap;html=1;rounded=1;sketch=1;" parent="1" vertex="1">
                    <mxGeometry x="-30" y="1690" width="140" height="70" as="geometry"/>
                </mxCell>
                <mxCell id="205" style="edgeStyle=orthogonalEdgeStyle;rounded=1;sketch=1;orthogonalLoop=1;jettySize=auto;html=1;entryX=1;entryY=0;entryDx=0;entryDy=0;startArrow=none;startFill=0;" parent="1" source="191" target="195" edge="1">
                    <mxGeometry relative="1" as="geometry"/>
                </mxCell>
                <mxCell id="191" value="3x Frankreich" style="ellipse;whiteSpace=wrap;html=1;rounded=1;sketch=1;" parent="1" vertex="1">
                    <mxGeometry x="340" y="1690" width="140" height="70" as="geometry"/>
                </mxCell>
                <mxCell id="193" style="edgeStyle=orthogonalEdgeStyle;rounded=1;sketch=1;orthogonalLoop=1;jettySize=auto;html=1;entryX=1;entryY=0.5;entryDx=0;entryDy=0;startArrow=none;startFill=0;" parent="1" source="195" target="199" edge="1">
                    <mxGeometry relative="1" as="geometry"/>
                </mxCell>
                <mxCell id="194" style="edgeStyle=orthogonalEdgeStyle;rounded=1;sketch=1;orthogonalLoop=1;jettySize=auto;html=1;entryX=0;entryY=0.5;entryDx=0;entryDy=0;startArrow=none;startFill=0;" parent="1" source="195" target="197" edge="1">
                    <mxGeometry relative="1" as="geometry"/>
                </mxCell>
                <mxCell id="195" value="" style="rhombus;strokeColor=#F0F0F0;rounded=1;sketch=1;" parent="1" vertex="1">
                    <mxGeometry x="205" y="1860" width="30" height="30" as="geometry"/>
                </mxCell>
                <mxCell id="196" style="edgeStyle=orthogonalEdgeStyle;rounded=1;sketch=1;orthogonalLoop=1;jettySize=auto;html=1;startArrow=none;startFill=0;" parent="1" source="197" target="201" edge="1">
                    <mxGeometry relative="1" as="geometry"/>
                </mxCell>
                <mxCell id="197" value="Welche Art von Müll?" style="html=1;align=center;verticalAlign=middle;absoluteArcSize=1;arcSize=10;dashed=0;fillColor=#00994D;rounded=1;sketch=1;" parent="1" vertex="1">
                    <mxGeometry x="340" y="1845" width="140" height="60" as="geometry"/>
                </mxCell>
                <mxCell id="198" style="edgeStyle=orthogonalEdgeStyle;rounded=1;sketch=1;orthogonalLoop=1;jettySize=auto;html=1;startArrow=none;startFill=0;" parent="1" source="199" target="200" edge="1">
                    <mxGeometry relative="1" as="geometry"/>
                </mxCell>
                <mxCell id="199" value="Wieso ein Strudel?" style="html=1;align=center;verticalAlign=middle;absoluteArcSize=1;arcSize=10;dashed=0;fillColor=#00994D;rounded=1;sketch=1;" parent="1" vertex="1">
                    <mxGeometry x="-30" y="1845" width="140" height="60" as="geometry"/>
                </mxCell>
                <mxCell id="216" style="edgeStyle=orthogonalEdgeStyle;rounded=1;sketch=1;orthogonalLoop=1;jettySize=auto;html=1;entryX=0;entryY=0;entryDx=0;entryDy=0;startArrow=none;startFill=0;" parent="1" source="200" target="209" edge="1">
                    <mxGeometry relative="1" as="geometry"/>
                </mxCell>
                <mxCell id="200" value="Wegen Strömungen" style="ellipse;whiteSpace=wrap;html=1;rounded=1;sketch=1;" parent="1" vertex="1">
                    <mxGeometry x="-30" y="1945" width="140" height="70" as="geometry"/>
                </mxCell>
                <mxCell id="217" style="edgeStyle=orthogonalEdgeStyle;rounded=1;sketch=1;orthogonalLoop=1;jettySize=auto;html=1;entryX=1;entryY=0;entryDx=0;entryDy=0;startArrow=none;startFill=0;" parent="1" source="201" target="209" edge="1">
                    <mxGeometry relative="1" as="geometry"/>
                </mxCell>
                <mxCell id="201" value="Fischernetze usw." style="ellipse;whiteSpace=wrap;html=1;rounded=1;sketch=1;" parent="1" vertex="1">
                    <mxGeometry x="340" y="1945" width="140" height="70" as="geometry"/>
                </mxCell>
                <mxCell id="207" style="edgeStyle=orthogonalEdgeStyle;rounded=1;sketch=1;orthogonalLoop=1;jettySize=auto;html=1;entryX=1;entryY=0.5;entryDx=0;entryDy=0;startArrow=none;startFill=0;" parent="1" source="209" target="213" edge="1">
                    <mxGeometry relative="1" as="geometry"/>
                </mxCell>
                <mxCell id="208" style="edgeStyle=orthogonalEdgeStyle;rounded=1;sketch=1;orthogonalLoop=1;jettySize=auto;html=1;entryX=0;entryY=0.5;entryDx=0;entryDy=0;startArrow=none;startFill=0;" parent="1" source="209" target="211" edge="1">
                    <mxGeometry relative="1" as="geometry"/>
                </mxCell>
                <mxCell id="209" value="" style="rhombus;strokeColor=#F0F0F0;rounded=1;sketch=1;" parent="1" vertex="1">
                    <mxGeometry x="205" y="2075" width="30" height="30" as="geometry"/>
                </mxCell>
                <mxCell id="210" style="edgeStyle=orthogonalEdgeStyle;rounded=1;sketch=1;orthogonalLoop=1;jettySize=auto;html=1;startArrow=none;startFill=0;" parent="1" source="211" target="215" edge="1">
                    <mxGeometry relative="1" as="geometry"/>
                </mxCell>
                <mxCell id="211" value="&lt;span lang=&quot;DE&quot; style=&quot;font-size: 11.0pt ; line-height: 107% ; font-family: &amp;#34;calibri&amp;#34; , sans-serif&quot;&gt;Danke, ich muss los.&lt;/span&gt;" style="html=1;align=center;verticalAlign=middle;absoluteArcSize=1;arcSize=10;dashed=0;fillColor=#00994D;rounded=1;sketch=1;" parent="1" vertex="1">
                    <mxGeometry x="340" y="2060" width="140" height="60" as="geometry"/>
                </mxCell>
                <mxCell id="212" style="edgeStyle=orthogonalEdgeStyle;rounded=1;sketch=1;orthogonalLoop=1;jettySize=auto;html=1;startArrow=none;startFill=0;" parent="1" source="213" target="214" edge="1">
                    <mxGeometry relative="1" as="geometry"/>
                </mxCell>
                <mxCell id="213" value="Kann ich was tun?" style="html=1;align=center;verticalAlign=middle;absoluteArcSize=1;arcSize=10;dashed=0;fillColor=#00994D;rounded=1;sketch=1;" parent="1" vertex="1">
                    <mxGeometry x="-30" y="2060" width="140" height="60" as="geometry"/>
                </mxCell>
                <mxCell id="228" style="edgeStyle=orthogonalEdgeStyle;rounded=1;sketch=1;orthogonalLoop=1;jettySize=auto;html=1;entryX=0.5;entryY=0;entryDx=0;entryDy=0;startArrow=none;startFill=0;" parent="1" source="214" target="221" edge="1">
                    <mxGeometry relative="1" as="geometry"/>
                </mxCell>
                <mxCell id="214" value="Klar!" style="ellipse;whiteSpace=wrap;html=1;rounded=1;sketch=1;" parent="1" vertex="1">
                    <mxGeometry x="-30" y="2160" width="140" height="70" as="geometry"/>
                </mxCell>
                <mxCell id="236" style="edgeStyle=orthogonalEdgeStyle;rounded=1;sketch=1;orthogonalLoop=1;jettySize=auto;html=1;entryX=1;entryY=0.5;entryDx=0;entryDy=0;startArrow=none;startFill=0;exitX=0.5;exitY=1;exitDx=0;exitDy=0;" parent="1" source="215" target="230" edge="1">
                    <mxGeometry relative="1" as="geometry"/>
                </mxCell>
                <mxCell id="215" value="Danke auch!" style="ellipse;whiteSpace=wrap;html=1;rounded=1;sketch=1;" parent="1" vertex="1">
                    <mxGeometry x="340" y="2160" width="140" height="70" as="geometry"/>
                </mxCell>
                <mxCell id="219" style="edgeStyle=orthogonalEdgeStyle;rounded=1;sketch=1;orthogonalLoop=1;jettySize=auto;html=1;entryX=1;entryY=0.5;entryDx=0;entryDy=0;startArrow=none;startFill=0;" parent="1" source="221" target="225" edge="1">
                    <mxGeometry relative="1" as="geometry">
                        <mxPoint x="-70" y="2300" as="targetPoint"/>
                    </mxGeometry>
                </mxCell>
                <mxCell id="220" style="edgeStyle=orthogonalEdgeStyle;rounded=1;sketch=1;orthogonalLoop=1;jettySize=auto;html=1;entryX=0;entryY=0.5;entryDx=0;entryDy=0;startArrow=none;startFill=0;" parent="1" source="221" target="223" edge="1">
                    <mxGeometry relative="1" as="geometry"/>
                </mxCell>
                <mxCell id="221" value="" style="rhombus;strokeColor=#F0F0F0;rounded=1;sketch=1;" parent="1" vertex="1">
                    <mxGeometry x="25" y="2285" width="30" height="30" as="geometry"/>
                </mxCell>
                <mxCell id="222" style="edgeStyle=orthogonalEdgeStyle;rounded=1;sketch=1;orthogonalLoop=1;jettySize=auto;html=1;startArrow=none;startFill=0;" parent="1" source="223" target="227" edge="1">
                    <mxGeometry relative="1" as="geometry"/>
                </mxCell>
                <mxCell id="223" value="&lt;span lang=&quot;DE&quot; style=&quot;font-size: 11.0pt ; line-height: 107% ; font-family: &amp;#34;calibri&amp;#34; , sans-serif&quot;&gt;Nein, danke!&lt;/span&gt;" style="html=1;align=center;verticalAlign=middle;absoluteArcSize=1;arcSize=10;dashed=0;fillColor=#00994D;rounded=1;sketch=1;" parent="1" vertex="1">
                    <mxGeometry x="160" y="2270" width="140" height="60" as="geometry"/>
                </mxCell>
                <mxCell id="224" style="edgeStyle=orthogonalEdgeStyle;rounded=1;sketch=1;orthogonalLoop=1;jettySize=auto;html=1;startArrow=none;startFill=0;" parent="1" source="225" target="226" edge="1">
                    <mxGeometry relative="1" as="geometry"/>
                </mxCell>
                <mxCell id="225" value="Mehr erfahren!" style="html=1;align=center;verticalAlign=middle;absoluteArcSize=1;arcSize=10;dashed=0;fillColor=#00994D;rounded=1;sketch=1;" parent="1" vertex="1">
                    <mxGeometry x="-220" y="2270" width="140" height="60" as="geometry"/>
                </mxCell>
                <mxCell id="234" style="edgeStyle=orthogonalEdgeStyle;rounded=1;sketch=1;orthogonalLoop=1;jettySize=auto;html=1;entryX=0;entryY=0.5;entryDx=0;entryDy=0;startArrow=none;startFill=0;exitX=0.5;exitY=1;exitDx=0;exitDy=0;" parent="1" source="226" target="230" edge="1">
                    <mxGeometry relative="1" as="geometry">
                        <mxPoint x="-70" y="2415" as="sourcePoint"/>
                    </mxGeometry>
                </mxCell>
                <mxCell id="226" value="Wegen Strömungen" style="ellipse;whiteSpace=wrap;html=1;rounded=1;sketch=1;" parent="1" vertex="1">
                    <mxGeometry x="-220" y="2380" width="140" height="70" as="geometry"/>
                </mxCell>
                <mxCell id="235" style="edgeStyle=orthogonalEdgeStyle;rounded=1;sketch=1;orthogonalLoop=1;jettySize=auto;html=1;entryX=0.5;entryY=0;entryDx=0;entryDy=0;startArrow=none;startFill=0;" parent="1" source="227" target="230" edge="1">
                    <mxGeometry relative="1" as="geometry"/>
                </mxCell>
                <mxCell id="227" value="Danke auch!" style="ellipse;whiteSpace=wrap;html=1;rounded=1;sketch=1;" parent="1" vertex="1">
                    <mxGeometry x="160" y="2370" width="140" height="70" as="geometry"/>
                </mxCell>
                <mxCell id="229" style="edgeStyle=orthogonalEdgeStyle;rounded=0;orthogonalLoop=1;jettySize=auto;html=1;entryX=0.5;entryY=0;entryDx=0;entryDy=0;" parent="1" target="232" edge="1">
                    <mxGeometry relative="1" as="geometry">
                        <mxPoint x="230" y="2565" as="sourcePoint"/>
                    </mxGeometry>
                </mxCell>
                <mxCell id="230" value="" style="rhombus;strokeColor=#F0F0F0;rounded=1;sketch=1;arcSize=0;" parent="1" vertex="1">
                    <mxGeometry x="215" y="2550" width="30" height="30" as="geometry"/>
                </mxCell>
                <mxCell id="231" style="edgeStyle=orthogonalEdgeStyle;rounded=0;orthogonalLoop=1;jettySize=auto;html=1;entryX=0.5;entryY=0;entryDx=0;entryDy=0;" parent="1" source="232" target="233" edge="1">
                    <mxGeometry relative="1" as="geometry"/>
                </mxCell>
                <mxCell id="232" value="End Scene 2" style="html=1;align=center;verticalAlign=top;absoluteArcSize=1;arcSize=10;dashed=0;fillColor=#FFB366;rounded=1;sketch=1;" parent="1" vertex="1">
                    <mxGeometry x="160" y="2670" width="140" height="40" as="geometry"/>
                </mxCell>
                <mxCell id="233" value="" style="ellipse;html=1;shape=endState;fillColor=#000000;sketch=1;strokeColor=#FFFFFF;" parent="1" vertex="1">
                    <mxGeometry x="215" y="2760" width="30" height="30" as="geometry"/>
                </mxCell>
                <mxCell id="238" value="zu Szene 4" style="html=1;shape=mxgraph.infographic.ribbonSimple;notch1=0;notch2=20;align=center;verticalAlign=middle;fontSize=14;fontStyle=0;fillColor=#080808;sketch=1;" parent="1" vertex="1">
                    <mxGeometry x="-1050" y="1500" width="160" height="40" as="geometry"/>
                </mxCell>
                <mxCell id="241" style="edgeStyle=orthogonalEdgeStyle;rounded=0;orthogonalLoop=1;jettySize=auto;html=1;" parent="1" source="239" target="238" edge="1">
                    <mxGeometry relative="1" as="geometry"/>
                </mxCell>
                <mxCell id="239" value="" style="rhombus;strokeColor=#F0F0F0;rounded=1;sketch=1;" parent="1" vertex="1">
                    <mxGeometry x="-985" y="1355" width="30" height="30" as="geometry"/>
                </mxCell>
                <mxCell id="247" style="edgeStyle=orthogonalEdgeStyle;rounded=0;orthogonalLoop=1;jettySize=auto;html=1;entryX=0.5;entryY=0;entryDx=0;entryDy=0;" parent="1" source="243" target="244" edge="1">
                    <mxGeometry relative="1" as="geometry"/>
                </mxCell>
                <mxCell id="243" value="von Szene 3" style="html=1;shape=mxgraph.infographic.ribbonSimple;notch1=20;notch2=0;align=center;verticalAlign=middle;fontSize=14;fontStyle=0;flipH=0;spacingRight=0;spacingLeft=14;sketch=1;fillColor=#000000;" parent="1" vertex="1">
                    <mxGeometry x="610" y="510" width="170" height="40" as="geometry"/>
                </mxCell>
                <mxCell id="248" style="edgeStyle=orthogonalEdgeStyle;rounded=0;orthogonalLoop=1;jettySize=auto;html=1;" parent="1" source="244" target="147" edge="1">
                    <mxGeometry relative="1" as="geometry"/>
                </mxCell>
                <mxCell id="244" value="" style="rhombus;strokeColor=#F0F0F0;rounded=1;sketch=1;arcSize=50;" parent="1" vertex="1">
                    <mxGeometry x="680" y="590" width="30" height="30" as="geometry"/>
                </mxCell>
                <mxCell id="259" style="edgeStyle=orthogonalEdgeStyle;rounded=0;sketch=1;orthogonalLoop=1;jettySize=auto;html=1;entryX=0.5;entryY=0;entryDx=0;entryDy=0;" parent="1" source="250" target="256" edge="1">
                    <mxGeometry relative="1" as="geometry"/>
                </mxCell>
                <mxCell id="250" value="" style="rhombus;strokeColor=#F0F0F0;rounded=1;sketch=1;arcSize=50;" parent="1" vertex="1">
                    <mxGeometry x="810" y="1060" width="30" height="30" as="geometry"/>
                </mxCell>
                <mxCell id="254" style="edgeStyle=orthogonalEdgeStyle;orthogonalLoop=1;jettySize=auto;html=1;entryX=0;entryY=0.5;entryDx=0;entryDy=0;sketch=1;" parent="1" source="256" target="257" edge="1">
                    <mxGeometry relative="1" as="geometry"/>
                </mxCell>
                <mxCell id="255" style="edgeStyle=orthogonalEdgeStyle;orthogonalLoop=1;jettySize=auto;html=1;sketch=1;" parent="1" source="256" target="258" edge="1">
                    <mxGeometry relative="1" as="geometry"/>
                </mxCell>
                <mxCell id="256" value="" style="rhombus;strokeColor=#F0F0F0;rounded=1;sketch=1;" parent="1" vertex="1">
                    <mxGeometry x="810" y="1185" width="30" height="30" as="geometry"/>
                </mxCell>
                <mxCell id="263" style="edgeStyle=orthogonalEdgeStyle;rounded=0;sketch=1;orthogonalLoop=1;jettySize=auto;html=1;entryX=0.5;entryY=0;entryDx=0;entryDy=0;" parent="1" source="257" target="261" edge="1">
                    <mxGeometry relative="1" as="geometry"/>
                </mxCell>
                <mxCell id="257" value="&lt;span lang=&quot;DE&quot; style=&quot;font-size: 11.0pt ; line-height: 107% ; font-family: &amp;#34;calibri&amp;#34; , sans-serif&quot;&gt;Was&lt;br/&gt;hältst du von &lt;br&gt;Aquarien und Zoos?&lt;/span&gt;" style="html=1;align=center;verticalAlign=middle;absoluteArcSize=1;arcSize=10;dashed=0;fillColor=#00994D;rounded=1;sketch=1;" parent="1" vertex="1">
                    <mxGeometry x="905" y="1170" width="140" height="60" as="geometry"/>
                </mxCell>
                <mxCell id="262" style="edgeStyle=orthogonalEdgeStyle;rounded=0;sketch=1;orthogonalLoop=1;jettySize=auto;html=1;entryX=0.5;entryY=0;entryDx=0;entryDy=0;" parent="1" source="258" target="260" edge="1">
                    <mxGeometry relative="1" as="geometry"/>
                </mxCell>
                <mxCell id="258" value="&lt;span lang=&quot;DE&quot; style=&quot;font-size: 11.0pt ; line-height: 107% ; font-family: &amp;#34;calibri&amp;#34; , sans-serif&quot;&gt;&lt;span lang=&quot;DE&quot; style=&quot;font-size: 11.0pt ; line-height: 107% ; font-family: &amp;#34;calibri&amp;#34; , sans-serif&quot;&gt;Werden&lt;br/&gt;Wale &lt;br&gt;noch immer gejagt?&lt;/span&gt;&lt;br&gt;&lt;/span&gt;" style="html=1;align=center;verticalAlign=middle;absoluteArcSize=1;arcSize=10;dashed=0;fillColor=#00994D;rounded=1;sketch=1;" parent="1" vertex="1">
                    <mxGeometry x="605" y="1170" width="140" height="60" as="geometry"/>
                </mxCell>
                <mxCell id="288" style="edgeStyle=orthogonalEdgeStyle;rounded=0;sketch=1;orthogonalLoop=1;jettySize=auto;html=1;entryX=0;entryY=0.5;entryDx=0;entryDy=0;exitX=0.5;exitY=1;exitDx=0;exitDy=0;" parent="1" source="260" target="281" edge="1">
                    <mxGeometry relative="1" as="geometry"/>
                </mxCell>
                <mxCell id="260" value="&lt;span lang=&quot;DE&quot; style=&quot;font-size: 11.0pt ; line-height: 107% ; font-family: &amp;#34;calibri&amp;#34; , sans-serif&quot;&gt;&lt;span lang=&quot;DE&quot; style=&quot;font-size: 11.0pt ; line-height: 107% ; font-family: &amp;#34;calibri&amp;#34; , sans-serif&quot;&gt;Andere&lt;br/&gt;marine Arten haben genauso&amp;nbsp;&lt;/span&gt;&lt;br&gt;&lt;/span&gt;" style="ellipse;whiteSpace=wrap;html=1;rounded=1;sketch=1;" parent="1" vertex="1">
                    <mxGeometry x="605" y="1270" width="140" height="70" as="geometry"/>
                </mxCell>
                <mxCell id="284" style="edgeStyle=orthogonalEdgeStyle;rounded=0;sketch=1;orthogonalLoop=1;jettySize=auto;html=1;entryX=0;entryY=0;entryDx=0;entryDy=0;" parent="1" source="261" target="281" edge="1">
                    <mxGeometry relative="1" as="geometry"/>
                </mxCell>
                <mxCell id="261" value="&lt;span lang=&quot;DE&quot; style=&quot;font-size: 11.0pt ; line-height: 107% ; font-family: &amp;#34;calibri&amp;#34; , sans-serif&quot;&gt;&lt;span lang=&quot;DE&quot; style=&quot;font-size: 11.0pt ; line-height: 107% ; font-family: &amp;#34;calibri&amp;#34; , sans-serif&quot;&gt;Phytoplankton&lt;br&gt;oder&amp;nbsp;&lt;/span&gt;&lt;span lang=&quot;DE&quot; style=&quot;font-size: 11.0pt ; line-height: 107% ; font-family: &amp;#34;calibri&amp;#34; , sans-serif&quot;&gt;Seegraswiesen&lt;/span&gt;&lt;br&gt;&lt;/span&gt;" style="ellipse;whiteSpace=wrap;html=1;rounded=1;sketch=1;" parent="1" vertex="1">
                    <mxGeometry x="905" y="1270" width="140" height="70" as="geometry"/>
                </mxCell>
                <mxCell id="291" style="edgeStyle=orthogonalEdgeStyle;rounded=0;sketch=1;orthogonalLoop=1;jettySize=auto;html=1;entryX=0.5;entryY=0;entryDx=0;entryDy=0;" parent="1" source="264" target="265" edge="1">
                    <mxGeometry relative="1" as="geometry"/>
                </mxCell>
                <mxCell id="264" value="Kann ich was tun?" style="html=1;align=center;verticalAlign=middle;absoluteArcSize=1;arcSize=10;dashed=0;fillColor=#00994D;rounded=1;sketch=1;" parent="1" vertex="1">
                    <mxGeometry x="1055" y="1460" width="140" height="60" as="geometry"/>
                </mxCell>
                <mxCell id="292" style="edgeStyle=orthogonalEdgeStyle;rounded=0;sketch=1;orthogonalLoop=1;jettySize=auto;html=1;entryX=0.5;entryY=0;entryDx=0;entryDy=0;" parent="1" source="265" target="269" edge="1">
                    <mxGeometry relative="1" as="geometry"/>
                </mxCell>
                <mxCell id="265" value="Klar!" style="ellipse;whiteSpace=wrap;html=1;rounded=1;sketch=1;" parent="1" vertex="1">
                    <mxGeometry x="1055" y="1560" width="140" height="70" as="geometry"/>
                </mxCell>
                <mxCell id="267" style="edgeStyle=orthogonalEdgeStyle;rounded=1;sketch=1;orthogonalLoop=1;jettySize=auto;html=1;entryX=1;entryY=0.5;entryDx=0;entryDy=0;startArrow=none;startFill=0;" parent="1" source="269" target="271" edge="1">
                    <mxGeometry relative="1" as="geometry">
                        <mxPoint x="1015" y="1700" as="targetPoint"/>
                    </mxGeometry>
                </mxCell>
                <mxCell id="268" style="edgeStyle=orthogonalEdgeStyle;rounded=1;sketch=1;orthogonalLoop=1;jettySize=auto;html=1;entryX=0;entryY=0.5;entryDx=0;entryDy=0;startArrow=none;startFill=0;" parent="1" source="269" target="270" edge="1">
                    <mxGeometry relative="1" as="geometry"/>
                </mxCell>
                <mxCell id="269" value="" style="rhombus;strokeColor=#F0F0F0;rounded=1;sketch=1;" parent="1" vertex="1">
                    <mxGeometry x="1110" y="1685" width="30" height="30" as="geometry"/>
                </mxCell>
                <mxCell id="294" style="edgeStyle=orthogonalEdgeStyle;rounded=0;sketch=1;orthogonalLoop=1;jettySize=auto;html=1;entryX=0.5;entryY=0;entryDx=0;entryDy=0;" parent="1" source="270" target="275" edge="1">
                    <mxGeometry relative="1" as="geometry"/>
                </mxCell>
                <mxCell id="270" value="&lt;span lang=&quot;DE&quot; style=&quot;font-size: 11.0pt ; line-height: 107% ; font-family: &amp;#34;calibri&amp;#34; , sans-serif&quot;&gt;Nein, danke!&lt;/span&gt;" style="html=1;align=center;verticalAlign=middle;absoluteArcSize=1;arcSize=10;dashed=0;fillColor=#00994D;rounded=1;sketch=1;" parent="1" vertex="1">
                    <mxGeometry x="1245" y="1670" width="140" height="60" as="geometry"/>
                </mxCell>
                <mxCell id="293" style="edgeStyle=orthogonalEdgeStyle;rounded=0;sketch=1;orthogonalLoop=1;jettySize=auto;html=1;entryX=0.5;entryY=0;entryDx=0;entryDy=0;" parent="1" source="271" target="273" edge="1">
                    <mxGeometry relative="1" as="geometry"/>
                </mxCell>
                <mxCell id="271" value="Mehr erfahren!" style="html=1;align=center;verticalAlign=middle;absoluteArcSize=1;arcSize=10;dashed=0;fillColor=#00994D;rounded=1;sketch=1;" parent="1" vertex="1">
                    <mxGeometry x="865" y="1670" width="140" height="60" as="geometry"/>
                </mxCell>
                <mxCell id="272" style="edgeStyle=orthogonalEdgeStyle;rounded=1;sketch=1;orthogonalLoop=1;jettySize=auto;html=1;entryX=0;entryY=0.5;entryDx=0;entryDy=0;startArrow=none;startFill=0;exitX=0.5;exitY=1;exitDx=0;exitDy=0;" parent="1" source="273" target="277" edge="1">
                    <mxGeometry relative="1" as="geometry">
                        <mxPoint x="1015" y="1815" as="sourcePoint"/>
                    </mxGeometry>
                </mxCell>
                <mxCell id="273" value="Wegen Strömungen" style="ellipse;whiteSpace=wrap;html=1;rounded=1;sketch=1;" parent="1" vertex="1">
                    <mxGeometry x="865" y="1780" width="140" height="70" as="geometry"/>
                </mxCell>
                <mxCell id="274" style="edgeStyle=orthogonalEdgeStyle;rounded=1;sketch=1;orthogonalLoop=1;jettySize=auto;html=1;entryX=1;entryY=0.5;entryDx=0;entryDy=0;startArrow=none;startFill=0;exitX=0.5;exitY=1;exitDx=0;exitDy=0;" parent="1" source="275" target="277" edge="1">
                    <mxGeometry relative="1" as="geometry"/>
                </mxCell>
                <mxCell id="275" value="Danke auch!" style="ellipse;whiteSpace=wrap;html=1;rounded=1;sketch=1;" parent="1" vertex="1">
                    <mxGeometry x="1245" y="1770" width="140" height="70" as="geometry"/>
                </mxCell>
                <mxCell id="276" style="edgeStyle=orthogonalEdgeStyle;rounded=0;orthogonalLoop=1;jettySize=auto;html=1;entryX=0.5;entryY=0;entryDx=0;entryDy=0;" parent="1" target="279" edge="1">
                    <mxGeometry relative="1" as="geometry">
                        <mxPoint x="1125" y="1959.9999999999995" as="sourcePoint"/>
                    </mxGeometry>
                </mxCell>
                <mxCell id="277" value="" style="rhombus;strokeColor=#F0F0F0;rounded=1;sketch=1;arcSize=0;" parent="1" vertex="1">
                    <mxGeometry x="1110" y="1945" width="30" height="30" as="geometry"/>
                </mxCell>
                <mxCell id="278" style="edgeStyle=orthogonalEdgeStyle;rounded=0;orthogonalLoop=1;jettySize=auto;html=1;entryX=0.5;entryY=0;entryDx=0;entryDy=0;" parent="1" source="279" target="280" edge="1">
                    <mxGeometry relative="1" as="geometry"/>
                </mxCell>
                <mxCell id="279" value="End Scene" style="html=1;align=center;verticalAlign=top;absoluteArcSize=1;arcSize=10;dashed=0;fillColor=#FFB366;rounded=1;sketch=1;" parent="1" vertex="1">
                    <mxGeometry x="1055" y="2050" width="140" height="40" as="geometry"/>
                </mxCell>
                <mxCell id="280" value="" style="ellipse;html=1;shape=endState;fillColor=#000000;sketch=1;strokeColor=#FFFFFF;" parent="1" vertex="1">
                    <mxGeometry x="1110" y="2155" width="30" height="30" as="geometry"/>
                </mxCell>
                <mxCell id="290" style="edgeStyle=orthogonalEdgeStyle;rounded=0;sketch=1;orthogonalLoop=1;jettySize=auto;html=1;entryX=0.5;entryY=0;entryDx=0;entryDy=0;" parent="1" source="281" target="264" edge="1">
                    <mxGeometry relative="1" as="geometry"/>
                </mxCell>
                <mxCell id="281" value="" style="rhombus;strokeColor=#F0F0F0;rounded=1;sketch=1;" parent="1" vertex="1">
                    <mxGeometry x="1110" y="1395" width="30" height="30" as="geometry"/>
                </mxCell>
            </root>
        </mxGraphModel>
    </diagram>
</mxfile>